STARTFONT 2.1
FONT -DEC-Terminal-Medium-R-Wide--25-180-100-100-C-180-iso8859-9
SIZE 18 100 100
FONTBOUNDINGBOX 18 25 0 -5

STARTPROPERTIES 24
FOUNDRY "Monotype"
FAMILY_NAME "VT"
WEIGHT_NAME "Regular"
SLANT "R"
SETWIDTH_NAME "Wide"
ADD_STYLE_NAME ""
PIXEL_SIZE 25
POINT_SIZE 180
RESOLUTION_X 100
RESOLUTION_Y 100
SPACING "C"
AVERAGE_WIDTH 180
CHARSET_REGISTRY "iso8859"
CHARSET_ENCODING "9"
FACE_NAME "VT Wide ISO Latin5"
_DEC_DEVICE_FONTNAMES "PS=vt-wide-isolatin5"
COPYRIGHT "Copyright (c) 1993 Monotype Typography Ltd."
CAP_HEIGHT 14
X_HEIGHT 10
WEIGHT 10
QUAD_WIDTH 18
DEFAULT_CHAR 160
FONT_DESCENT 5
FONT_ASCENT 20
ENDPROPERTIES

CHARS 191

STARTCHAR space
ENCODING 32
SWIDTH 723 0
DWIDTH 18 0
BBX 18 25 0 -5
BITMAP
000000
000000
000000
000000
000000
000000
000000
000000
000000
000000
000000
000000
000000
000000
000000
000000
000000
000000
000000
000000
000000
000000
000000
000000
000000
ENDCHAR

STARTCHAR exclam
ENCODING 33
SWIDTH 723 0
DWIDTH 18 0
BBX 18 25 0 -5
BITMAP
000000
000000
000000
000000
000000
00C000
00C000
00C000
00C000
00C000
00C000
00C000
00C000
00C000
000000
000000
000000
00C000
03F000
00C000
000000
000000
000000
000000
000000
ENDCHAR

STARTCHAR quotedbl
ENCODING 34
SWIDTH 723 0
DWIDTH 18 0
BBX 18 25 0 -5
BITMAP
000000
000000
000000
000000
063000
063000
063000
063000
063000
063000
000000
000000
000000
000000
000000
000000
000000
000000
000000
000000
000000
000000
000000
000000
000000
ENDCHAR

STARTCHAR numbersign
ENCODING 35
SWIDTH 723 0
DWIDTH 18 0
BBX 18 25 0 -5
BITMAP
000000
000000
000000
000000
000000
063000
063000
063000
063000
063000
1FFC00
063000
063000
063000
063000
1FFC00
063000
063000
063000
063000
063000
000000
000000
000000
000000
ENDCHAR

STARTCHAR dollar
ENCODING 36
SWIDTH 723 0
DWIDTH 18 0
BBX 18 25 0 -5
BITMAP
000000
000000
00C000
00C000
00C000
00C000
07FA00
0C0E00
180600
180600
0F0000
07E000
00FC00
001C00
180600
180600
1C0600
1F0C00
19F800
00C000
00C000
00C000
00C000
000000
000000
ENDCHAR

STARTCHAR percent
ENCODING 37
SWIDTH 723 0
DWIDTH 18 0
BBX 18 25 0 -5
BITMAP
000000
000000
000000
000000
000000
1F8000
30C000
30C000
30C000
30C600
1F9C00
007000
00E000
038000
0E7E00
18C300
00C300
00C300
00C300
007E00
000000
000000
000000
000000
000000
ENDCHAR

STARTCHAR ampersand
ENCODING 38
SWIDTH 723 0
DWIDTH 18 0
BBX 18 25 0 -5
BITMAP
000000
000000
000000
000000
000000
03F800
071800
061800
060000
060000
030000
018000
078600
0EC600
0C6400
0C6C00
0C3800
0C1800
0E7E00
07C600
000000
000000
000000
000000
000000
ENDCHAR

STARTCHAR quoteright
ENCODING 39
SWIDTH 723 0
DWIDTH 18 0
BBX 18 25 0 -5
BITMAP
000000
000000
000000
007800
00F000
01E000
03C000
030000
060000
000000
000000
000000
000000
000000
000000
000000
000000
000000
000000
000000
000000
000000
000000
000000
000000
ENDCHAR

STARTCHAR parenleft
ENCODING 40
SWIDTH 723 0
DWIDTH 18 0
BBX 18 25 0 -5
BITMAP
000000
000000
001800
003000
006000
00C000
00C000
018000
018000
030000
030000
030000
030000
030000
030000
030000
030000
018000
018000
00C000
00C000
006000
003000
001800
000000
ENDCHAR

STARTCHAR parenright
ENCODING 41
SWIDTH 723 0
DWIDTH 18 0
BBX 18 25 0 -5
BITMAP
000000
000000
030000
018000
00C000
006000
006000
003000
003000
001800
001800
001800
001800
001800
001800
001800
001800
003000
003000
006000
006000
00C000
018000
030000
000000
ENDCHAR

STARTCHAR asterisk
ENCODING 42
SWIDTH 723 0
DWIDTH 18 0
BBX 18 25 0 -5
BITMAP
000000
000000
000000
000000
000000
000000
00C000
0CCC00
0CCC00
03F000
03F000
00C000
033000
033000
0C0C00
0C0C00
000000
000000
000000
000000
000000
000000
000000
000000
000000
ENDCHAR

STARTCHAR plus
ENCODING 43
SWIDTH 723 0
DWIDTH 18 0
BBX 18 25 0 -5
BITMAP
000000
000000
000000
000000
000000
000000
000000
00C000
00C000
00C000
00C000
00C000
3FFF00
00C000
00C000
00C000
00C000
00C000
000000
000000
000000
000000
000000
000000
000000
ENDCHAR

STARTCHAR comma
ENCODING 44
SWIDTH 723 0
DWIDTH 18 0
BBX 18 25 0 -5
BITMAP
000000
000000
000000
000000
000000
000000
000000
000000
000000
000000
000000
000000
000000
000000
000000
000000
000000
00F000
00E000
01C000
018000
030000
060000
000000
000000
ENDCHAR

STARTCHAR minus
ENCODING 45
SWIDTH 723 0
DWIDTH 18 0
BBX 18 25 0 -5
BITMAP
000000
000000
000000
000000
000000
000000
000000
000000
000000
000000
000000
000000
1FFE00
000000
000000
000000
000000
000000
000000
000000
000000
000000
000000
000000
000000
ENDCHAR

STARTCHAR period
ENCODING 46
SWIDTH 723 0
DWIDTH 18 0
BBX 18 25 0 -5
BITMAP
000000
000000
000000
000000
000000
000000
000000
000000
000000
000000
000000
000000
000000
000000
000000
000000
000000
00C000
03F000
00C000
000000
000000
000000
000000
000000
ENDCHAR

STARTCHAR slash
ENCODING 47
SWIDTH 723 0
DWIDTH 18 0
BBX 18 25 0 -5
BITMAP
000000
000000
000000
000C00
000C00
001800
001800
003000
003000
006000
006000
00C000
00C000
00C000
018000
018000
030000
030000
060000
060000
0C0000
0C0000
000000
000000
000000
ENDCHAR

STARTCHAR zero
ENCODING 48
SWIDTH 723 0
DWIDTH 18 0
BBX 18 25 0 -5
BITMAP
000000
000000
000000
000000
000000
03F000
073800
0C0C00
0C0C00
180600
180600
180600
180600
180600
180600
180600
0C0C00
0C0C00
073800
03F000
000000
000000
000000
000000
000000
ENDCHAR

STARTCHAR one
ENCODING 49
SWIDTH 723 0
DWIDTH 18 0
BBX 18 25 0 -5
BITMAP
000000
000000
000000
000000
000000
00C000
01C000
06C000
18C000
00C000
00C000
00C000
00C000
00C000
00C000
00C000
00C000
00C000
00C000
0FFC00
000000
000000
000000
000000
000000
ENDCHAR

STARTCHAR two
ENCODING 50
SWIDTH 723 0
DWIDTH 18 0
BBX 18 25 0 -5
BITMAP
000000
000000
000000
000000
000000
03F800
060C00
0C0600
0C0600
000C00
000C00
001800
003000
006000
004000
00C000
018000
030600
060600
0FFE00
000000
000000
000000
000000
000000
ENDCHAR

STARTCHAR three
ENCODING 51
SWIDTH 723 0
DWIDTH 18 0
BBX 18 25 0 -5
BITMAP
000000
000000
000000
000000
000000
07E000
1C3000
181800
001800
001800
003000
03E000
007000
001800
000C00
000C00
000C00
181800
1C3800
0FE000
000000
000000
000000
000000
000000
ENDCHAR

STARTCHAR four
ENCODING 52
SWIDTH 723 0
DWIDTH 18 0
BBX 18 25 0 -5
BITMAP
000000
000000
000000
000000
000000
001800
003800
007800
00D800
019800
011800
031800
061800
0C1800
181800
1FFE00
001800
001800
001800
007E00
000000
000000
000000
000000
000000
ENDCHAR

STARTCHAR five
ENCODING 53
SWIDTH 723 0
DWIDTH 18 0
BBX 18 25 0 -5
BITMAP
000000
000000
000000
000000
000000
0FFC00
0C0000
0C0000
0C0000
0C0000
0DF000
0E3C00
000C00
000600
000600
000600
000600
0C0E00
0E1C00
07F000
000000
000000
000000
000000
000000
ENDCHAR

STARTCHAR six
ENCODING 54
SWIDTH 723 0
DWIDTH 18 0
BBX 18 25 0 -5
BITMAP
000000
000000
000000
000000
000000
00FC00
038000
060000
0C0000
080000
180000
1BF800
1E0C00
1C0600
180600
180600
180600
080600
0E1C00
03F000
000000
000000
000000
000000
000000
ENDCHAR

STARTCHAR seven
ENCODING 55
SWIDTH 723 0
DWIDTH 18 0
BBX 18 25 0 -5
BITMAP
000000
000000
000000
000000
000000
1FFE00
180600
180E00
180C00
001800
001800
003000
007000
006000
00C000
00C000
018000
018000
030000
030000
000000
000000
000000
000000
000000
ENDCHAR

STARTCHAR eight
ENCODING 56
SWIDTH 723 0
DWIDTH 18 0
BBX 18 25 0 -5
BITMAP
000000
000000
000000
000000
000000
03F000
0E1C00
0C0C00
180600
180600
0C0C00
07F800
0E1C00
1C0E00
180600
180600
180600
1C0E00
0E1C00
03F000
000000
000000
000000
000000
000000
ENDCHAR

STARTCHAR nine
ENCODING 57
SWIDTH 723 0
DWIDTH 18 0
BBX 18 25 0 -5
BITMAP
000000
000000
000000
000000
000000
07F000
0C1C00
180C00
180600
180600
180600
180E00
0C1E00
07F600
000600
000C00
000C00
001800
007000
0FC000
000000
000000
000000
000000
000000
ENDCHAR

STARTCHAR colon
ENCODING 58
SWIDTH 723 0
DWIDTH 18 0
BBX 18 25 0 -5
BITMAP
000000
000000
000000
000000
000000
000000
000000
000000
000000
000000
00C000
03F000
00C000
000000
000000
000000
000000
00C000
03F000
00C000
000000
000000
000000
000000
000000
ENDCHAR

STARTCHAR semicolon
ENCODING 59
SWIDTH 723 0
DWIDTH 18 0
BBX 18 25 0 -5
BITMAP
000000
000000
000000
000000
000000
000000
000000
000000
000000
000000
006000
01F800
006000
000000
000000
000000
000000
00F000
00E000
01C000
018000
030000
060000
000000
000000
ENDCHAR

STARTCHAR less
ENCODING 60
SWIDTH 723 0
DWIDTH 18 0
BBX 18 25 0 -5
BITMAP
000000
000000
000000
000000
000000
000000
000000
000000
000C00
003800
00E000
038000
060000
1C0000
060000
038000
00E000
003800
000C00
000000
000000
000000
000000
000000
000000
ENDCHAR

STARTCHAR equal
ENCODING 61
SWIDTH 723 0
DWIDTH 18 0
BBX 18 25 0 -5
BITMAP
000000
000000
000000
000000
000000
000000
000000
000000
000000
000000
1FFE00
000000
000000
000000
1FFE00
000000
000000
000000
000000
000000
000000
000000
000000
000000
000000
ENDCHAR

STARTCHAR greater
ENCODING 62
SWIDTH 723 0
DWIDTH 18 0
BBX 18 25 0 -5
BITMAP
000000
000000
000000
000000
000000
000000
000000
000000
180000
0E0000
038000
00E000
003000
001C00
003000
00E000
038000
0E0000
180000
000000
000000
000000
000000
000000
000000
ENDCHAR

STARTCHAR question
ENCODING 63
SWIDTH 723 0
DWIDTH 18 0
BBX 18 25 0 -5
BITMAP
000000
000000
000000
000000
000000
03E000
0E3800
180C00
180C00
001800
007000
00C000
00C000
00C000
000000
000000
000000
00C000
03F000
00C000
000000
000000
000000
000000
000000
ENDCHAR

STARTCHAR at
ENCODING 64
SWIDTH 723 0
DWIDTH 18 0
BBX 18 25 0 -5
BITMAP
000000
000000
000000
03F000
0E1800
180C00
180C00
300C00
300C00
30FC00
318C00
318C00
318C00
318C00
318C00
318C00
30FF00
300000
300000
180000
180300
0E0700
03FC00
000000
000000
ENDCHAR

STARTCHAR A
ENCODING 65
SWIDTH 723 0
DWIDTH 18 0
BBX 18 25 0 -5
BITMAP
000000
000000
000000
000000
000000
00C000
00C000
01E000
033000
033000
033000
061800
061800
0C0C00
0FFC00
0C0C00
180600
180600
180600
7E1F80
000000
000000
000000
000000
000000
ENDCHAR

STARTCHAR B
ENCODING 66
SWIDTH 723 0
DWIDTH 18 0
BBX 18 25 0 -5
BITMAP
000000
000000
000000
000000
000000
7FF000
181C00
180600
180600
180600
180C00
1FF800
180C00
180600
180600
180600
180600
180600
181C00
7FF000
000000
000000
000000
000000
000000
ENDCHAR

STARTCHAR C
ENCODING 67
SWIDTH 723 0
DWIDTH 18 0
BBX 18 25 0 -5
BITMAP
000000
000000
000000
000000
000000
07F600
181E00
180600
300600
300000
300000
300000
300000
300000
300000
300000
300600
180600
1C1C00
07F000
000000
000000
000000
000000
000000
ENDCHAR

STARTCHAR D
ENCODING 68
SWIDTH 723 0
DWIDTH 18 0
BBX 18 25 0 -5
BITMAP
000000
000000
000000
000000
000000
7FF000
181C00
180600
180600
180600
180600
180600
180600
180600
180600
180600
180600
180600
181C00
7FF000
000000
000000
000000
000000
000000
ENDCHAR

STARTCHAR E
ENCODING 69
SWIDTH 723 0
DWIDTH 18 0
BBX 18 25 0 -5
BITMAP
000000
000000
000000
000000
000000
3FFE00
0C0600
0C0600
0C0600
0C0000
0C1000
0C1000
0FF000
0C1000
0C1000
0C0000
0C0600
0C0600
0C0600
3FFE00
000000
000000
000000
000000
000000
ENDCHAR

STARTCHAR F
ENCODING 70
SWIDTH 723 0
DWIDTH 18 0
BBX 18 25 0 -5
BITMAP
000000
000000
000000
000000
000000
3FFF00
0C0300
0C0300
0C0300
0C0000
0C1000
0C1000
0FF000
0C1000
0C1000
0C0000
0C0000
0C0000
0C0000
3FC000
000000
000000
000000
000000
000000
ENDCHAR

STARTCHAR G
ENCODING 71
SWIDTH 723 0
DWIDTH 18 0
BBX 18 25 0 -5
BITMAP
000000
000000
000000
000000
000000
07F600
1C1E00
180600
300600
300000
300000
300000
300000
301F00
300600
300600
300600
180600
1C0C00
07F800
000000
000000
000000
000000
000000
ENDCHAR

STARTCHAR H
ENCODING 72
SWIDTH 723 0
DWIDTH 18 0
BBX 18 25 0 -5
BITMAP
000000
000000
000000
000000
000000
3E1F00
180600
180600
180600
180600
180600
180600
1FFE00
180600
180600
180600
180600
180600
180600
3E1F00
000000
000000
000000
000000
000000
ENDCHAR

STARTCHAR I
ENCODING 73
SWIDTH 723 0
DWIDTH 18 0
BBX 18 25 0 -5
BITMAP
000000
000000
000000
000000
000000
1FFE00
00C000
00C000
00C000
00C000
00C000
00C000
00C000
00C000
00C000
00C000
00C000
00C000
00C000
1FFE00
000000
000000
000000
000000
000000
ENDCHAR

STARTCHAR J
ENCODING 74
SWIDTH 723 0
DWIDTH 18 0
BBX 18 25 0 -5
BITMAP
000000
000000
000000
000000
000000
01FF00
001800
001800
001800
001800
001800
001800
001800
001800
001800
301800
301800
301800
183000
07E000
000000
000000
000000
000000
000000
ENDCHAR

STARTCHAR K
ENCODING 75
SWIDTH 723 0
DWIDTH 18 0
BBX 18 25 0 -5
BITMAP
000000
000000
000000
000000
000000
3F3F00
0C0C00
0C1800
0C3000
0C6000
0CC000
0DE000
0F6000
0E3000
0C1800
0C1800
0C0C00
0C0E00
0C0600
3F0F00
000000
000000
000000
000000
000000
ENDCHAR

STARTCHAR L
ENCODING 76
SWIDTH 723 0
DWIDTH 18 0
BBX 18 25 0 -5
BITMAP
000000
000000
000000
000000
000000
1F8000
060000
060000
060000
060000
060000
060000
060000
060000
060000
060000
060000
060300
060300
1FFF00
000000
000000
000000
000000
000000
ENDCHAR

STARTCHAR M
ENCODING 77
SWIDTH 723 0
DWIDTH 18 0
BBX 18 25 0 -5
BITMAP
000000
000000
000000
000000
000000
3C0780
0C0600
0E0E00
0E0E00
0E0E00
0D1600
0D1600
0DB600
0CA600
0CA600
0C4600
0C4600
0C0600
0C0600
3F1F80
000000
000000
000000
000000
000000
ENDCHAR

STARTCHAR N
ENCODING 78
SWIDTH 723 0
DWIDTH 18 0
BBX 18 25 0 -5
BITMAP
000000
000000
000000
000000
000000
7C1F80
1E0600
1A0600
1B0600
190600
198600
188600
18C600
186600
182600
183600
181600
181E00
180E00
7E0E00
000000
000000
000000
000000
000000
ENDCHAR

STARTCHAR O
ENCODING 79
SWIDTH 723 0
DWIDTH 18 0
BBX 18 25 0 -5
BITMAP
000000
000000
000000
000000
000000
07F800
1C0E00
180600
300300
300300
300300
300300
300300
300300
300300
300300
300300
180600
1C0E00
07F800
000000
000000
000000
000000
000000
ENDCHAR

STARTCHAR P
ENCODING 80
SWIDTH 723 0
DWIDTH 18 0
BBX 18 25 0 -5
BITMAP
000000
000000
000000
000000
000000
3FFC00
0C0600
0C0300
0C0300
0C0300
0C0300
0C0300
0C0600
0FFC00
0C0000
0C0000
0C0000
0C0000
0C0000
3F8000
000000
000000
000000
000000
000000
ENDCHAR

STARTCHAR Q
ENCODING 81
SWIDTH 723 0
DWIDTH 18 0
BBX 18 25 0 -5
BITMAP
000000
000000
000000
000000
000000
07F800
1C0E00
180600
300300
300300
300300
300300
300300
300300
300300
300300
300300
180600
1C0E00
07F800
010000
010000
0FC600
1C7C00
000000
ENDCHAR

STARTCHAR R
ENCODING 82
SWIDTH 723 0
DWIDTH 18 0
BBX 18 25 0 -5
BITMAP
000000
000000
000000
000000
000000
3FF800
0C0C00
0C0600
0C0600
0C0600
0C0C00
0FF800
0C6000
0C3000
0C1800
0C1800
0C0C00
0C0C00
0C0600
3F0700
000000
000000
000000
000000
000000
ENDCHAR

STARTCHAR S
ENCODING 83
SWIDTH 723 0
DWIDTH 18 0
BBX 18 25 0 -5
BITMAP
000000
000000
000000
000000
000000
07F600
0C0E00
180600
180600
1C0000
0F8000
03F000
007C00
000E00
000600
180600
180600
180600
1E0C00
1BF800
000000
000000
000000
000000
000000
ENDCHAR

STARTCHAR T
ENCODING 84
SWIDTH 723 0
DWIDTH 18 0
BBX 18 25 0 -5
BITMAP
000000
000000
000000
000000
000000
3FFF00
30C300
30C300
30C300
30C300
00C000
00C000
00C000
00C000
00C000
00C000
00C000
00C000
00C000
07F800
000000
000000
000000
000000
000000
ENDCHAR

STARTCHAR U
ENCODING 85
SWIDTH 723 0
DWIDTH 18 0
BBX 18 25 0 -5
BITMAP
000000
000000
000000
000000
000000
7E1F80
180600
180600
180600
180600
180600
180600
180600
180600
180600
180600
180600
180600
0C0C00
07F800
000000
000000
000000
000000
000000
ENDCHAR

STARTCHAR V
ENCODING 86
SWIDTH 723 0
DWIDTH 18 0
BBX 18 25 0 -5
BITMAP
000000
000000
000000
000000
000000
7E7F00
180C00
180C00
180C00
0C1800
0C1800
0C1800
063000
063000
063000
036000
036000
036000
01C000
01C000
000000
000000
000000
000000
000000
ENDCHAR

STARTCHAR W
ENCODING 87
SWIDTH 723 0
DWIDTH 18 0
BBX 18 25 0 -5
BITMAP
000000
000000
000000
000000
000000
780780
300300
300300
30C300
30C300
18C600
18C600
19E600
19E600
192600
1B3600
1B3600
0A1400
0E1C00
0E1C00
000000
000000
000000
000000
000000
ENDCHAR

STARTCHAR X
ENCODING 88
SWIDTH 723 0
DWIDTH 18 0
BBX 18 25 0 -5
BITMAP
000000
000000
000000
000000
000000
7C1E00
380C00
1C1800
0C3000
062000
076000
03C000
01C000
03E000
067000
0C3800
0C1800
180C00
380E00
7C1F00
000000
000000
000000
000000
000000
ENDCHAR

STARTCHAR Y
ENCODING 89
SWIDTH 723 0
DWIDTH 18 0
BBX 18 25 0 -5
BITMAP
000000
000000
000000
000000
000000
7F3F80
1C0600
0C0E00
0E0C00
061800
033000
033000
01E000
01E000
00C000
00C000
00C000
00C000
00C000
07F800
000000
000000
000000
000000
000000
ENDCHAR

STARTCHAR Z
ENCODING 90
SWIDTH 723 0
DWIDTH 18 0
BBX 18 25 0 -5
BITMAP
000000
000000
000000
000000
000000
1FFE00
180600
180E00
181C00
003800
003000
006000
00C000
018000
030000
070000
0E0600
1C0600
180600
1FFE00
000000
000000
000000
000000
000000
ENDCHAR

STARTCHAR bracketleft
ENCODING 91
SWIDTH 723 0
DWIDTH 18 0
BBX 18 25 0 -5
BITMAP
000000
000000
01FC00
018000
018000
018000
018000
018000
018000
018000
018000
018000
018000
018000
018000
018000
018000
018000
018000
018000
018000
018000
018000
01FC00
000000
ENDCHAR

STARTCHAR backslash
ENCODING 92
SWIDTH 723 0
DWIDTH 18 0
BBX 18 25 0 -5
BITMAP
000000
000000
000000
0C0000
0C0000
060000
060000
030000
030000
018000
018000
00C000
00C000
00C000
006000
006000
003000
003000
001800
001800
000C00
000C00
000000
000000
000000
ENDCHAR

STARTCHAR bracketright
ENCODING 93
SWIDTH 723 0
DWIDTH 18 0
BBX 18 25 0 -5
BITMAP
000000
000000
07E000
006000
006000
006000
006000
006000
006000
006000
006000
006000
006000
006000
006000
006000
006000
006000
006000
006000
006000
006000
006000
07E000
000000
ENDCHAR

STARTCHAR asciicircum
ENCODING 94
SWIDTH 723 0
DWIDTH 18 0
BBX 18 25 0 -5
BITMAP
000000
000000
000000
000000
000000
000000
000000
000000
000000
00C000
03F000
073800
1C0E00
000000
000000
000000
000000
000000
000000
000000
000000
000000
000000
000000
000000
ENDCHAR

STARTCHAR underscore
ENCODING 95
SWIDTH 723 0
DWIDTH 18 0
BBX 18 25 0 -5
BITMAP
000000
000000
000000
000000
000000
000000
000000
000000
000000
000000
000000
000000
000000
000000
000000
000000
000000
000000
000000
FFFF80
000000
000000
000000
000000
000000
ENDCHAR

STARTCHAR quoteleft
ENCODING 96
SWIDTH 723 0
DWIDTH 18 0
BBX 18 25 0 -5
BITMAP
000000
000000
000000
03C000
01E000
00E000
007000
003000
001800
000000
000000
000000
000000
000000
000000
000000
000000
000000
000000
000000
000000
000000
000000
000000
000000
ENDCHAR

STARTCHAR a
ENCODING 97
SWIDTH 723 0
DWIDTH 18 0
BBX 18 25 0 -5
BITMAP
000000
000000
000000
000000
000000
000000
000000
000000
07F800
181C00
180C00
000C00
07FC00
1C0C00
380C00
300C00
300C00
381C00
1C6C00
0FCE00
000000
000000
000000
000000
000000
ENDCHAR

STARTCHAR b
ENCODING 98
SWIDTH 723 0
DWIDTH 18 0
BBX 18 25 0 -5
BITMAP
000000
000000
000000
000000
380000
180000
180000
180000
19F000
1B1C00
1C0C00
1C0E00
180600
180600
180600
180600
1C0E00
1C0C00
1B1C00
39F000
000000
000000
000000
000000
000000
ENDCHAR

STARTCHAR c
ENCODING 99
SWIDTH 723 0
DWIDTH 18 0
BBX 18 25 0 -5
BITMAP
000000
000000
000000
000000
000000
000000
000000
000000
03F600
0E1E00
0C0E00
1C0600
180600
180000
180000
180000
1C0600
0C0600
0E1C00
03F800
000000
000000
000000
000000
000000
ENDCHAR

STARTCHAR d
ENCODING 100
SWIDTH 723 0
DWIDTH 18 0
BBX 18 25 0 -5
BITMAP
000000
000000
000000
000000
001C00
000C00
000C00
000C00
07CC00
1C6C00
181C00
381C00
300C00
300C00
300C00
300C00
381C00
181C00
1C6C00
07CE00
000000
000000
000000
000000
000000
ENDCHAR

STARTCHAR e
ENCODING 101
SWIDTH 723 0
DWIDTH 18 0
BBX 18 25 0 -5
BITMAP
000000
000000
000000
000000
000000
000000
000000
000000
03F000
0E1C00
0C0C00
1C0E00
180600
1FFE00
180000
180000
1C0E00
0C0C00
0E1C00
03F000
000000
000000
000000
000000
000000
ENDCHAR

STARTCHAR f
ENCODING 102
SWIDTH 723 0
DWIDTH 18 0
BBX 18 25 0 -5
BITMAP
000000
000000
000000
00FC00
018000
018000
018000
018000
1FFC00
018000
018000
018000
018000
018000
018000
018000
018000
018000
018000
1FFC00
000000
000000
000000
000000
000000
ENDCHAR

STARTCHAR g
ENCODING 103
SWIDTH 723 0
DWIDTH 18 0
BBX 18 25 0 -5
BITMAP
000000
000000
000000
000000
000000
000000
000000
000000
07CE00
1C7C00
181C00
300C00
300C00
300C00
300C00
300C00
300C00
181C00
1C7C00
07EC00
000C00
000C00
001800
007000
3FC000
ENDCHAR

STARTCHAR h
ENCODING 104
SWIDTH 723 0
DWIDTH 18 0
BBX 18 25 0 -5
BITMAP
000000
000000
000000
000000
380000
180000
180000
180000
19F800
1F1C00
1C0C00
180C00
180C00
180C00
180C00
180C00
180C00
180C00
180C00
3C1E00
000000
000000
000000
000000
000000
ENDCHAR

STARTCHAR i
ENCODING 105
SWIDTH 723 0
DWIDTH 18 0
BBX 18 25 0 -5
BITMAP
000000
000000
00C000
00C000
00C000
000000
000000
000000
1FC000
00C000
00C000
00C000
00C000
00C000
00C000
00C000
00C000
00C000
00C000
1FFE00
000000
000000
000000
000000
000000
ENDCHAR

STARTCHAR j
ENCODING 106
SWIDTH 723 0
DWIDTH 18 0
BBX 18 25 0 -5
BITMAP
000000
000000
006000
006000
006000
000000
000000
000000
1FE000
006000
006000
006000
006000
006000
006000
006000
006000
006000
006000
006000
006000
00E000
00C000
01C000
1F0000
ENDCHAR

STARTCHAR k
ENCODING 107
SWIDTH 723 0
DWIDTH 18 0
BBX 18 25 0 -5
BITMAP
000000
000000
000000
000000
1C0000
0C0000
0C0000
0C0000
0C0700
0C0C00
0C1800
0C3000
0C6000
0FC000
0C6000
0C3000
0C1800
0C0C00
0C0600
1E0F00
000000
000000
000000
000000
000000
ENDCHAR

STARTCHAR l
ENCODING 108
SWIDTH 723 0
DWIDTH 18 0
BBX 18 25 0 -5
BITMAP
000000
000000
000000
000000
1FC000
00C000
00C000
00C000
00C000
00C000
00C000
00C000
00C000
00C000
00C000
00C000
00C000
00C000
00C000
1FFE00
000000
000000
000000
000000
000000
ENDCHAR

STARTCHAR m
ENCODING 109
SWIDTH 723 0
DWIDTH 18 0
BBX 18 25 0 -5
BITMAP
000000
000000
000000
000000
000000
000000
000000
000000
3BBC00
1CE600
18C600
18C600
18C600
18C600
18C600
18C600
18C600
18C600
18C600
39E700
000000
000000
000000
000000
000000
ENDCHAR

STARTCHAR n
ENCODING 110
SWIDTH 723 0
DWIDTH 18 0
BBX 18 25 0 -5
BITMAP
000000
000000
000000
000000
000000
000000
000000
000000
39F800
1F1C00
1C0C00
180C00
180C00
180C00
180C00
180C00
180C00
180C00
180C00
3E3E00
000000
000000
000000
000000
000000
ENDCHAR

STARTCHAR o
ENCODING 111
SWIDTH 723 0
DWIDTH 18 0
BBX 18 25 0 -5
BITMAP
000000
000000
000000
000000
000000
000000
000000
000000
07F000
1E3C00
180C00
380E00
300600
300600
300600
300600
380E00
180C00
1E3C00
07F000
000000
000000
000000
000000
000000
ENDCHAR

STARTCHAR p
ENCODING 112
SWIDTH 723 0
DWIDTH 18 0
BBX 18 25 0 -5
BITMAP
000000
000000
000000
000000
000000
000000
000000
000000
3BF000
1E1C00
1C0C00
180600
180600
180600
180600
180600
180600
1C0C00
1E1C00
1BF000
180000
180000
180000
180000
3C0000
ENDCHAR

STARTCHAR q
ENCODING 113
SWIDTH 723 0
DWIDTH 18 0
BBX 18 25 0 -5
BITMAP
000000
000000
000000
000000
000000
000000
000000
000000
07EE00
1C3C00
181C00
300C00
300C00
300C00
300C00
300C00
300C00
181C00
1C3C00
07EC00
000C00
000C00
000C00
000C00
001E00
ENDCHAR

STARTCHAR r
ENCODING 114
SWIDTH 723 0
DWIDTH 18 0
BBX 18 25 0 -5
BITMAP
000000
000000
000000
000000
000000
000000
000000
000000
1E7E00
06C300
070300
070000
060000
060000
060000
060000
060000
060000
060000
1FC000
000000
000000
000000
000000
000000
ENDCHAR

STARTCHAR s
ENCODING 115
SWIDTH 723 0
DWIDTH 18 0
BBX 18 25 0 -5
BITMAP
000000
000000
000000
000000
000000
000000
000000
000000
07F200
0C1A00
180E00
1C0600
0F0000
03E000
003800
180E00
180600
1C0600
160C00
13F800
000000
000000
000000
000000
000000
ENDCHAR

STARTCHAR t
ENCODING 116
SWIDTH 723 0
DWIDTH 18 0
BBX 18 25 0 -5
BITMAP
000000
000000
000000
000000
000000
060000
060000
060000
3FFC00
060000
060000
060000
060000
060000
060000
060000
060000
060000
070E00
03FC00
000000
000000
000000
000000
000000
ENDCHAR

STARTCHAR u
ENCODING 117
SWIDTH 723 0
DWIDTH 18 0
BBX 18 25 0 -5
BITMAP
000000
000000
000000
000000
000000
000000
000000
000000
381C00
180C00
180C00
180C00
180C00
180C00
180C00
180C00
180C00
181C00
1C3C00
0FEE00
000000
000000
000000
000000
000000
ENDCHAR

STARTCHAR v
ENCODING 118
SWIDTH 723 0
DWIDTH 18 0
BBX 18 25 0 -5
BITMAP
000000
000000
000000
000000
000000
000000
000000
000000
3C0F00
180600
180600
0C0C00
0C0C00
061800
061800
033000
033000
01E000
01C000
00C000
000000
000000
000000
000000
000000
ENDCHAR

STARTCHAR w
ENCODING 119
SWIDTH 723 0
DWIDTH 18 0
BBX 18 25 0 -5
BITMAP
000000
000000
000000
000000
000000
000000
000000
000000
700700
600300
608300
608300
31C600
31C600
336600
322600
363600
1C1C00
180C00
180C00
000000
000000
000000
000000
000000
ENDCHAR

STARTCHAR x
ENCODING 120
SWIDTH 723 0
DWIDTH 18 0
BBX 18 25 0 -5
BITMAP
000000
000000
000000
000000
000000
000000
000000
000000
1E1E00
0C0C00
061800
033000
01E000
00C000
01E000
033000
061800
0C1C00
1C0E00
3E1F00
000000
000000
000000
000000
000000
ENDCHAR

STARTCHAR y
ENCODING 121
SWIDTH 723 0
DWIDTH 18 0
BBX 18 25 0 -5
BITMAP
000000
000000
000000
000000
000000
000000
000000
000000
3E0F00
1C0600
0C0E00
0C0C00
0E1C00
061800
063000
033000
036000
01C000
01C000
018000
030000
030000
060000
060000
1F0000
ENDCHAR

STARTCHAR z
ENCODING 122
SWIDTH 723 0
DWIDTH 18 0
BBX 18 25 0 -5
BITMAP
000000
000000
000000
000000
000000
000000
000000
000000
1FFE00
180E00
181C00
183800
007000
00E000
01C000
038000
070600
0E0600
1C0600
1FFE00
000000
000000
000000
000000
000000
ENDCHAR

STARTCHAR braceleft
ENCODING 123
SWIDTH 723 0
DWIDTH 18 0
BBX 18 25 0 -5
BITMAP
000000
000000
007800
00C000
00C000
00C000
00C000
00C000
00C000
00C000
00C000
00C000
070000
00C000
00C000
00C000
00C000
00C000
00C000
00C000
00C000
00C000
00C000
007800
000000
ENDCHAR

STARTCHAR bar
ENCODING 124
SWIDTH 723 0
DWIDTH 18 0
BBX 18 25 0 -5
BITMAP
000000
00C000
00C000
00C000
00C000
00C000
00C000
00C000
00C000
00C000
00C000
00C000
00C000
00C000
00C000
00C000
00C000
00C000
00C000
00C000
00C000
00C000
00C000
000000
000000
ENDCHAR

STARTCHAR braceright
ENCODING 125
SWIDTH 723 0
DWIDTH 18 0
BBX 18 25 0 -5
BITMAP
000000
000000
078000
00C000
00C000
00C000
00C000
00C000
00C000
00C000
00C000
00C000
003800
00C000
00C000
00C000
00C000
00C000
00C000
00C000
00C000
00C000
00C000
078000
000000
ENDCHAR

STARTCHAR asciitilde
ENCODING 126
SWIDTH 723 0
DWIDTH 18 0
BBX 18 25 0 -5
BITMAP
000000
000000
000000
000000
000000
000000
000000
000000
000000
000000
070600
0FC600
18FC00
183800
000000
000000
000000
000000
000000
000000
000000
000000
000000
000000
000000
ENDCHAR

STARTCHAR space
ENCODING 160
SWIDTH 723 0
DWIDTH 18 0
BBX 18 25 0 -5
BITMAP
000000
000000
000000
000000
000000
000000
000000
000000
000000
000000
000000
000000
000000
000000
000000
000000
000000
000000
000000
000000
000000
000000
000000
000000
000000
ENDCHAR

STARTCHAR exclamdown
ENCODING 161
SWIDTH 723 0
DWIDTH 18 0
BBX 18 25 0 -5
BITMAP
000000
000000
000000
000000
000000
000000
000000
00C000
03F000
00C000
000000
000000
000000
00C000
00C000
00C000
00C000
00C000
00C000
00C000
00C000
00C000
000000
000000
000000
ENDCHAR

STARTCHAR cent
ENCODING 162
SWIDTH 723 0
DWIDTH 18 0
BBX 18 25 0 -5
BITMAP
000000
000000
000000
000000
00C000
00C000
00C000
03E600
0E1E00
0C0E00
1C0600
180000
180000
180000
1C0000
0C0E00
0E1E00
03F800
00C000
00C000
00C000
00C000
000000
000000
000000
ENDCHAR

STARTCHAR sterling
ENCODING 163
SWIDTH 723 0
DWIDTH 18 0
BBX 18 25 0 -5
BITMAP
000000
000000
000000
000000
000000
01F000
031800
060C00
060C00
070000
030000
018000
1FFC00
018000
018000
018000
018000
07C100
1CE300
183E00
000000
000000
000000
000000
000000
ENDCHAR

STARTCHAR currency
ENCODING 164
SWIDTH 723 0
DWIDTH 18 0
BBX 18 25 0 -5
BITMAP
000000
000000
000000
000000
000000
000000
180C00
180C00
07F000
180C00
180C00
180C00
180C00
180C00
180C00
07F000
180C00
180C00
000000
000000
000000
000000
000000
000000
000000
ENDCHAR

STARTCHAR yen
ENCODING 165
SWIDTH 723 0
DWIDTH 18 0
BBX 18 25 0 -5
BITMAP
000000
000000
000000
000000
000000
7F3F80
1C0600
0C0600
0E0C00
3E1F00
033000
033000
01E000
3FFF00
00C000
00C000
00C000
00C000
00C000
0FFC00
000000
000000
000000
000000
000000
ENDCHAR

STARTCHAR brokenbar
ENCODING 166
SWIDTH 723 0
DWIDTH 18 0
BBX 18 25 0 -5
BITMAP
000000
000000
000000
00C000
00C000
00C000
00C000
00C000
00C000
00C000
00C000
000000
000000
000000
000000
000000
00C000
00C000
00C000
00C000
00C000
00C000
00C000
00C000
000000
ENDCHAR

STARTCHAR section
ENCODING 167
SWIDTH 723 0
DWIDTH 18 0
BBX 18 25 0 -5
BITMAP
000000
000000
000000
000000
000000
01FE00
060600
0C0600
0C0000
070000
07C000
04F000
0C3C00
0C0C00
0E0600
078600
01E400
007C00
001C00
000600
0C0600
0C0C00
0FF800
000000
000000
ENDCHAR

STARTCHAR dieresis
ENCODING 168
SWIDTH 723 0
DWIDTH 18 0
BBX 18 25 0 -5
BITMAP
000000
0E1C00
0E1C00
0E1C00
000000
000000
000000
000000
000000
000000
000000
000000
000000
000000
000000
000000
000000
000000
000000
000000
000000
000000
000000
000000
000000
ENDCHAR

STARTCHAR copyright
ENCODING 169
SWIDTH 723 0
DWIDTH 18 0
BBX 18 25 0 -5
BITMAP
000000
000000
000000
000000
000000
000000
07F800
1C0E00
300300
21E100
633180
631180
630180
631180
633180
21E100
300300
1C0E00
07F800
000000
000000
000000
000000
000000
000000
ENDCHAR

STARTCHAR ordfeminine
ENCODING 170
SWIDTH 723 0
DWIDTH 18 0
BBX 18 25 0 -5
BITMAP
000000
000000
000000
000000
0FE000
003000
001800
07F800
0C3800
181800
181800
1C3800
0FEC00
000000
000000
000000
1FFC00
000000
000000
000000
000000
000000
000000
000000
000000
ENDCHAR

STARTCHAR guillemotleft
ENCODING 171
SWIDTH 723 0
DWIDTH 18 0
BBX 18 25 0 -5
BITMAP
000000
000000
000000
000000
000000
000000
000000
000000
000000
030600
060C00
0E1C00
0C1800
183000
183000
0C1800
0E1C00
060C00
030600
000000
000000
000000
000000
000000
000000
ENDCHAR

STARTCHAR logicalnot
ENCODING 172
SWIDTH 723 0
DWIDTH 18 0
BBX 18 25 0 -5
BITMAP
000000
000000
000000
000000
000000
000000
000000
000000
000000
000000
3FFC00
000C00
000C00
000C00
000C00
000000
000000
000000
000000
000000
000000
000000
000000
000000
000000
ENDCHAR

STARTCHAR hyphen
ENCODING 173
SWIDTH 723 0
DWIDTH 18 0
BBX 18 25 0 -5
BITMAP
000000
000000
000000
000000
000000
000000
000000
000000
000000
000000
000000
000000
1FFC00
000000
000000
000000
000000
000000
000000
000000
000000
000000
000000
000000
000000
ENDCHAR

STARTCHAR registered
ENCODING 174
SWIDTH 723 0
DWIDTH 18 0
BBX 18 25 0 -5
BITMAP
000000
000000
000000
000000
000000
000000
07F800
1C0E00
300300
23E100
633180
633180
63E180
633180
633180
233100
300300
1C0E00
07F800
000000
000000
000000
000000
000000
000000
ENDCHAR

STARTCHAR macron
ENCODING 175
SWIDTH 723 0
DWIDTH 18 0
BBX 18 25 0 -5
BITMAP
000000
000000
000000
0FFC00
000000
000000
000000
000000
000000
000000
000000
000000
000000
000000
000000
000000
000000
000000
000000
000000
000000
000000
000000
000000
000000
ENDCHAR

STARTCHAR degree
ENCODING 176
SWIDTH 723 0
DWIDTH 18 0
BBX 18 25 0 -5
BITMAP
000000
000000
000000
000000
07F000
0C1800
180C00
180C00
180C00
0C1800
07F000
000000
000000
000000
000000
000000
000000
000000
000000
000000
000000
000000
000000
000000
000000
ENDCHAR

STARTCHAR plusminus
ENCODING 177
SWIDTH 723 0
DWIDTH 18 0
BBX 18 25 0 -5
BITMAP
000000
000000
000000
000000
000000
000000
000000
00C000
00C000
00C000
00C000
1FFE00
00C000
00C000
00C000
00C000
000000
000000
000000
1FFE00
000000
000000
000000
000000
000000
ENDCHAR

STARTCHAR twosuperior
ENCODING 178
SWIDTH 723 0
DWIDTH 18 0
BBX 18 25 0 -5
BITMAP
000000
000000
000000
000000
03F000
0E1800
180C00
180C00
001800
003000
00E000
018000
030600
0E0600
1FFE00
000000
000000
000000
000000
000000
000000
000000
000000
000000
000000
ENDCHAR

STARTCHAR threesuperior
ENCODING 179
SWIDTH 723 0
DWIDTH 18 0
BBX 18 25 0 -5
BITMAP
000000
000000
000000
000000
07F000
1C1800
180C00
000C00
001800
01F000
001800
000C00
180C00
1C1800
07F000
000000
000000
000000
000000
000000
000000
000000
000000
000000
000000
ENDCHAR

STARTCHAR acute
ENCODING 180
SWIDTH 723 0
DWIDTH 18 0
BBX 18 25 0 -5
BITMAP
000000
007C00
00F000
03C000
030000
000000
000000
000000
000000
000000
000000
000000
000000
000000
000000
000000
000000
000000
000000
000000
000000
000000
000000
000000
000000
ENDCHAR

STARTCHAR mu
ENCODING 181
SWIDTH 723 0
DWIDTH 18 0
BBX 18 25 0 -5
BITMAP
000000
000000
000000
000000
000000
000000
000000
000000
030600
030600
030600
060C00
060C00
060C00
060C00
0C1800
0C1800
0C1800
0C7800
0FDE00
180000
180000
180000
180000
000000
ENDCHAR

STARTCHAR paragraph
ENCODING 182
SWIDTH 723 0
DWIDTH 18 0
BBX 18 25 0 -5
BITMAP
000000
000000
000000
000000
07FE00
1F1800
3F1800
3F1800
7F1800
7F1800
7F1800
3F1800
1F1800
071800
031800
031800
031800
031800
031800
031800
031800
031800
0F1E00
000000
000000
ENDCHAR

STARTCHAR periodcentered
ENCODING 183
SWIDTH 723 0
DWIDTH 18 0
BBX 18 25 0 -5
BITMAP
000000
000000
000000
000000
000000
000000
000000
000000
000000
000000
000000
00C000
03F000
00C000
000000
000000
000000
000000
000000
000000
000000
000000
000000
000000
000000
ENDCHAR

STARTCHAR cedilla
ENCODING 184
SWIDTH 723 0
DWIDTH 18 0
BBX 18 25 0 -5
BITMAP
000000
000000
000000
000000
000000
000000
000000
000000
000000
000000
000000
000000
000000
000000
000000
000000
000000
000000
000000
00C000
00C000
00F000
003800
003800
03F000
ENDCHAR

STARTCHAR onesuperior
ENCODING 185
SWIDTH 723 0
DWIDTH 18 0
BBX 18 25 0 -5
BITMAP
000000
000000
000000
000000
00C000
01C000
06C000
00C000
00C000
00C000
00C000
00C000
00C000
00C000
07F800
000000
000000
000000
000000
000000
000000
000000
000000
000000
000000
ENDCHAR

STARTCHAR ordmasculine
ENCODING 186
SWIDTH 723 0
DWIDTH 18 0
BBX 18 25 0 -5
BITMAP
000000
000000
000000
000000
07F000
0C1800
180C00
180C00
180C00
180C00
180C00
0C1800
07F000
000000
000000
000000
1FFC00
000000
000000
000000
000000
000000
000000
000000
000000
ENDCHAR

STARTCHAR guillemotright
ENCODING 187
SWIDTH 723 0
DWIDTH 18 0
BBX 18 25 0 -5
BITMAP
000000
000000
000000
000000
000000
000000
000000
000000
000000
183000
0C1800
0E1C00
060C00
030600
030600
060C00
0E1C00
0C1800
183000
000000
000000
000000
000000
000000
000000
ENDCHAR

STARTCHAR onequarter
ENCODING 188
SWIDTH 723 0
DWIDTH 18 0
BBX 18 25 0 -5
BITMAP
000000
000000
000000
000000
0C0000
1C0000
6C0000
0C0000
0C0000
0C0000
0C0000
0C0600
3F1E00
00F000
03C000
1E0C00
181C00
002C00
004C00
008C00
01FE00
000C00
000C00
000C00
000000
ENDCHAR

STARTCHAR onehalf
ENCODING 189
SWIDTH 723 0
DWIDTH 18 0
BBX 18 25 0 -5
BITMAP
000000
000000
000000
000000
0C0000
1C0000
6C0000
0C0000
0C0000
0C0000
0C0600
0C1E00
3F7800
00E000
078000
1E7C00
18C600
018300
000300
000600
001C00
003000
00E000
01FF00
000000
ENDCHAR

STARTCHAR threequarters
ENCODING 190
SWIDTH 723 0
DWIDTH 18 0
BBX 18 25 0 -5
BITMAP
000000
000000
000000
000000
1F0000
60C000
60C000
00C000
070000
00C000
60C000
60C300
1F0F00
003800
01E000
0F8C00
0C1C00
002C00
004C00
008C00
01FE00
000C00
000C00
000C00
000000
ENDCHAR

STARTCHAR questiondown
ENCODING 191
SWIDTH 723 0
DWIDTH 18 0
BBX 18 25 0 -5
BITMAP
000000
000000
000000
000000
000000
000000
000000
00C000
03F000
00C000
000000
000000
000000
00C000
00C000
018000
030000
060000
0C0600
0C0600
071C00
01F000
000000
000000
000000
ENDCHAR

STARTCHAR Agrave
ENCODING 192
SWIDTH 723 0
DWIDTH 18 0
BBX 18 25 0 -5
BITMAP
078000
01E000
006000
000000
000000
00C000
00C000
01E000
033000
033000
033000
061800
061800
0C0C00
0FFC00
0C0C00
180600
180600
180600
7E1F80
000000
000000
000000
000000
000000
ENDCHAR

STARTCHAR Aacute
ENCODING 193
SWIDTH 723 0
DWIDTH 18 0
BBX 18 25 0 -5
BITMAP
007800
01E000
018000
000000
000000
00C000
00C000
01E000
033000
033000
033000
061800
061800
0C0C00
0FFC00
0C0C00
180600
180600
180600
7E1F80
000000
000000
000000
000000
000000
ENDCHAR

STARTCHAR Acircumflex
ENCODING 194
SWIDTH 723 0
DWIDTH 18 0
BBX 18 25 0 -5
BITMAP
01E000
033000
061800
000000
000000
00C000
00C000
01E000
033000
033000
033000
061800
061800
0C0C00
0FFC00
0C0C00
180600
180600
180600
7E1F80
000000
000000
000000
000000
000000
ENDCHAR

STARTCHAR Atilde
ENCODING 195
SWIDTH 723 0
DWIDTH 18 0
BBX 18 25 0 -5
BITMAP
038800
07F800
047000
000000
000000
00C000
00C000
01E000
033000
033000
033000
061800
061800
0C0C00
0FFC00
0C0C00
180600
180600
180600
7E1F80
000000
000000
000000
000000
000000
ENDCHAR

STARTCHAR Adieresis
ENCODING 196
SWIDTH 723 0
DWIDTH 18 0
BBX 18 25 0 -5
BITMAP
0E1C00
0E1C00
000000
000000
000000
00C000
00C000
01E000
033000
033000
033000
061800
061800
0C0C00
0FFC00
0C0C00
180600
180600
180600
7E1F80
000000
000000
000000
000000
000000
ENDCHAR

STARTCHAR Aring
ENCODING 197
SWIDTH 723 0
DWIDTH 18 0
BBX 18 25 0 -5
BITMAP
01E000
033000
033000
01E000
000000
00C000
00C000
01E000
033000
033000
033000
061800
061800
0C0C00
0FFC00
0C0C00
180600
180600
180600
7E1F80
000000
000000
000000
000000
000000
ENDCHAR

STARTCHAR AE
ENCODING 198
SWIDTH 723 0
DWIDTH 18 0
BBX 18 25 0 -5
BITMAP
000000
000000
000000
000000
000000
03FF80
02C180
06C180
04C180
0CC000
0CC200
0CC200
08FE00
1FC200
18C200
18C000
30C180
30C180
30C180
79FF80
000000
000000
000000
000000
000000
ENDCHAR

STARTCHAR Ccedilla
ENCODING 199
SWIDTH 723 0
DWIDTH 18 0
BBX 18 25 0 -5
BITMAP
000000
000000
000000
000000
000000
07F600
181E00
180600
300600
300000
300000
300000
300000
300000
300000
300000
300600
180600
1C1C00
07F000
008000
00E000
00F000
003000
03E000
ENDCHAR

STARTCHAR Egrave
ENCODING 200
SWIDTH 723 0
DWIDTH 18 0
BBX 18 25 0 -5
BITMAP
078000
01E000
006000
000000
000000
3FFE00
0C0600
0C0600
0C0600
0C0000
0C1000
0C1000
0FF000
0C1000
0C1000
0C0000
0C0600
0C0600
0C0600
3FFE00
000000
000000
000000
000000
000000
ENDCHAR

STARTCHAR Eacute
ENCODING 201
SWIDTH 723 0
DWIDTH 18 0
BBX 18 25 0 -5
BITMAP
00F000
03C000
030000
000000
000000
3FFE00
0C0600
0C0600
0C0600
0C0000
0C1000
0C1000
0FF000
0C1000
0C1000
0C0000
0C0600
0C0600
0C0600
3FFE00
000000
000000
000000
000000
000000
ENDCHAR

STARTCHAR Ecircumflex
ENCODING 202
SWIDTH 723 0
DWIDTH 18 0
BBX 18 25 0 -5
BITMAP
01E000
033000
061800
000000
000000
3FFE00
0C0600
0C0600
0C0600
0C0000
0C1000
0C1000
0FF000
0C1000
0C1000
0C0000
0C0600
0C0600
0C0600
3FFE00
000000
000000
000000
000000
000000
ENDCHAR

STARTCHAR Edieresis
ENCODING 203
SWIDTH 723 0
DWIDTH 18 0
BBX 18 25 0 -5
BITMAP
0E1C00
0E1C00
000000
000000
000000
3FFE00
0C0600
0C0600
0C0600
0C0000
0C1000
0C1000
0FF000
0C1000
0C1000
0C0000
0C0600
0C0600
0C0600
3FFE00
000000
000000
000000
000000
000000
ENDCHAR

STARTCHAR Igrave
ENCODING 204
SWIDTH 723 0
DWIDTH 18 0
BBX 18 25 0 -5
BITMAP
078000
01E000
006000
000000
000000
1FFE00
00C000
00C000
00C000
00C000
00C000
00C000
00C000
00C000
00C000
00C000
00C000
00C000
00C000
1FFE00
000000
000000
000000
000000
000000
ENDCHAR

STARTCHAR Iacute
ENCODING 205
SWIDTH 723 0
DWIDTH 18 0
BBX 18 25 0 -5
BITMAP
00F000
03C000
030000
000000
000000
1FFE00
00C000
00C000
00C000
00C000
00C000
00C000
00C000
00C000
00C000
00C000
00C000
00C000
00C000
1FFE00
000000
000000
000000
000000
000000
ENDCHAR

STARTCHAR Icircumflex
ENCODING 206
SWIDTH 723 0
DWIDTH 18 0
BBX 18 25 0 -5
BITMAP
01E000
033000
061800
000000
000000
1FFE00
00C000
00C000
00C000
00C000
00C000
00C000
00C000
00C000
00C000
00C000
00C000
00C000
00C000
1FFE00
000000
000000
000000
000000
000000
ENDCHAR

STARTCHAR Idieresis
ENCODING 207
SWIDTH 723 0
DWIDTH 18 0
BBX 18 25 0 -5
BITMAP
0E1C00
0E1C00
000000
000000
000000
1FFE00
00C000
00C000
00C000
00C000
00C000
00C000
00C000
00C000
00C000
00C000
00C000
00C000
00C000
1FFE00
000000
000000
000000
000000
000000
ENDCHAR

STARTCHAR Gbreve
ENCODING 208
SWIDTH 723 0
DWIDTH 18 0
BBX 18 25 0 -5
BITMAP
0C0C00
0C0C00
061800
01E000
000000
07F600
1C1E00
180600
300600
300000
300000
300000
300000
301F00
300600
300600
300600
180600
1C0C00
07F800
000000
000000
000000
000000
000000
ENDCHAR

STARTCHAR Ntilde
ENCODING 209
SWIDTH 723 0
DWIDTH 18 0
BBX 18 25 0 -5
BITMAP
038800
07F800
047000
000000
000000
7C1F80
1E0600
1A0600
1B0600
190600
198600
188600
18C600
186600
182600
183600
181600
181E00
180E00
7E0E00
000000
000000
000000
000000
000000
ENDCHAR

STARTCHAR Ograve
ENCODING 210
SWIDTH 723 0
DWIDTH 18 0
BBX 18 25 0 -5
BITMAP
070000
01E000
006000
000000
000000
07F800
1C0E00
180600
300300
300300
300300
300300
300300
300300
300300
300300
300300
180600
1C0E00
07F800
000000
000000
000000
000000
000000
ENDCHAR

STARTCHAR Oacute
ENCODING 211
SWIDTH 723 0
DWIDTH 18 0
BBX 18 25 0 -5
BITMAP
007800
01E000
018000
000000
000000
07F800
1C0E00
180600
300300
300300
300300
300300
300300
300300
300300
300300
300300
180600
1C0E00
07F800
000000
000000
000000
000000
000000
ENDCHAR

STARTCHAR Ocircumflex
ENCODING 212
SWIDTH 723 0
DWIDTH 18 0
BBX 18 25 0 -5
BITMAP
01E000
033000
061800
000000
000000
07F800
1C0E00
180600
300300
300300
300300
300300
300300
300300
300300
300300
300300
180600
1C0E00
07F800
000000
000000
000000
000000
000000
ENDCHAR

STARTCHAR Otilde
ENCODING 213
SWIDTH 723 0
DWIDTH 18 0
BBX 18 25 0 -5
BITMAP
038800
07F800
047000
000000
000000
07F800
1C0E00
180600
300300
300300
300300
300300
300300
300300
300300
300300
300300
180600
1C0E00
07F800
000000
000000
000000
000000
000000
ENDCHAR

STARTCHAR Odieresis
ENCODING 214
SWIDTH 723 0
DWIDTH 18 0
BBX 18 25 0 -5
BITMAP
0E1C00
0E1C00
000000
000000
000000
07F800
1C0E00
180600
300300
300300
300300
300300
300300
300300
300300
300300
300300
180600
1C0E00
07F800
000000
000000
000000
000000
000000
ENDCHAR

STARTCHAR multiply
ENCODING 215
SWIDTH 723 0
DWIDTH 18 0
BBX 18 25 0 -5
BITMAP
000000
000000
000000
000000
000000
000000
000000
1C0E00
1C0E00
033000
033000
00C000
00C000
033000
033000
1C0E00
1C0E00
000000
000000
000000
000000
000000
000000
000000
000000
ENDCHAR

STARTCHAR Oslash
ENCODING 216
SWIDTH 723 0
DWIDTH 18 0
BBX 18 25 0 -5
BITMAP
000000
000000
000000
000000
000600
03F600
0E1C00
0C0C00
181E00
183600
182600
186600
184600
18C600
198600
190600
1B0600
0E0C00
0E1C00
1BF000
180000
000000
000000
000000
000000
ENDCHAR

STARTCHAR Ugrave
ENCODING 217
SWIDTH 723 0
DWIDTH 18 0
BBX 18 25 0 -5
BITMAP
03C000
00F000
003000
000000
000000
7E1F80
180600
180600
180600
180600
180600
180600
180600
180600
180600
180600
180600
180600
0C0C00
07F800
000000
000000
000000
000000
000000
ENDCHAR

STARTCHAR Uacute
ENCODING 218
SWIDTH 723 0
DWIDTH 18 0
BBX 18 25 0 -5
BITMAP
007800
01E000
018000
000000
000000
7E1F80
180600
180600
180600
180600
180600
180600
180600
180600
180600
180600
180600
180600
0C0C00
07F800
000000
000000
000000
000000
000000
ENDCHAR

STARTCHAR Ucircumflex
ENCODING 219
SWIDTH 723 0
DWIDTH 18 0
BBX 18 25 0 -5
BITMAP
01E000
033000
061800
000000
000000
7E1F80
180600
180600
180600
180600
180600
180600
180600
180600
180600
180600
180600
180600
0C0C00
07F800
000000
000000
000000
000000
000000
ENDCHAR

STARTCHAR Udieresis
ENCODING 220
SWIDTH 723 0
DWIDTH 18 0
BBX 18 25 0 -5
BITMAP
0E1C00
0E1C00
000000
000000
000000
7E1F80
180600
180600
180600
180600
180600
180600
180600
180600
180600
180600
180600
180600
0C0C00
07F800
000000
000000
000000
000000
000000
ENDCHAR

STARTCHAR Idotaccent
ENCODING 221
SWIDTH 723 0
DWIDTH 18 0
BBX 18 25 0 -5
BITMAP
00C000
01E000
00C000
000000
000000
1FFE00
00C000
00C000
00C000
00C000
00C000
00C000
00C000
00C000
00C000
00C000
00C000
00C000
00C000
1FFE00
000000
000000
000000
000000
000000
ENDCHAR

STARTCHAR Scedilla
ENCODING 222
SWIDTH 723 0
DWIDTH 18 0
BBX 18 25 0 -5
BITMAP
000000
000000
000000
000000
000000
07F600
0C0E00
180600
180600
1C0000
0F8000
03F000
007C00
000E00
000600
180600
180600
180600
1E0C00
1BF800
008000
00E000
00F000
003000
03E000
ENDCHAR

STARTCHAR germandbls
ENCODING 223
SWIDTH 723 0
DWIDTH 18 0
BBX 18 25 0 -5
BITMAP
000000
000000
000000
000000
03F800
060C00
0C0600
0C0600
0C0600
0C0600
0C0C00
0C7800
0C1800
0C0C00
0C0600
0C0600
0C0600
0C0600
0C0C00
3CF800
000000
000000
000000
000000
000000
ENDCHAR

STARTCHAR agrave
ENCODING 224
SWIDTH 723 0
DWIDTH 18 0
BBX 18 25 0 -5
BITMAP
000000
000000
078000
01E000
006000
000000
000000
000000
07F800
181C00
180C00
000C00
07FC00
1C0C00
380C00
300C00
300C00
381C00
1C6C00
0FCE00
000000
000000
000000
000000
000000
ENDCHAR

STARTCHAR aacute
ENCODING 225
SWIDTH 723 0
DWIDTH 18 0
BBX 18 25 0 -5
BITMAP
000000
000000
007800
01E000
018000
000000
000000
000000
07F800
181C00
180C00
000C00
07FC00
1C0C00
380C00
300C00
300C00
381C00
1C6C00
0FCE00
000000
000000
000000
000000
000000
ENDCHAR

STARTCHAR acircumflex
ENCODING 226
SWIDTH 723 0
DWIDTH 18 0
BBX 18 25 0 -5
BITMAP
000000
000000
000000
01E000
033000
061800
000000
000000
07F800
181C00
180C00
000C00
07FC00
1C0C00
380C00
300C00
300C00
381C00
1C6C00
0FCE00
000000
000000
000000
000000
000000
ENDCHAR

STARTCHAR atilde
ENCODING 227
SWIDTH 723 0
DWIDTH 18 0
BBX 18 25 0 -5
BITMAP
000000
000000
000000
038800
07F800
047000
000000
000000
07F800
181C00
180C00
000C00
07FC00
1C0C00
380C00
300C00
300C00
381C00
1C6C00
0FCE00
000000
000000
000000
000000
000000
ENDCHAR

STARTCHAR adieresis
ENCODING 228
SWIDTH 723 0
DWIDTH 18 0
BBX 18 25 0 -5
BITMAP
000000
000000
0E1C00
0E1C00
000000
000000
000000
000000
07F800
181C00
180C00
000C00
07FC00
1C0C00
380C00
300C00
300C00
381C00
1C6C00
0FCE00
000000
000000
000000
000000
000000
ENDCHAR

STARTCHAR aring
ENCODING 229
SWIDTH 723 0
DWIDTH 18 0
BBX 18 25 0 -5
BITMAP
000000
03E000
063000
063000
063000
03E000
000000
000000
07F800
181C00
180C00
000C00
07FC00
1C0C00
380C00
300C00
300C00
381C00
1C6C00
0FCE00
000000
000000
000000
000000
000000
ENDCHAR

STARTCHAR ae
ENCODING 230
SWIDTH 723 0
DWIDTH 18 0
BBX 18 25 0 -5
BITMAP
000000
000000
000000
000000
000000
000000
000000
000000
1F3E00
71E300
60C180
00C180
00C180
1FFF80
30C000
60C000
60C000
60C180
31E300
1F3E00
000000
000000
000000
000000
000000
ENDCHAR

STARTCHAR ccedilla
ENCODING 231
SWIDTH 723 0
DWIDTH 18 0
BBX 18 25 0 -5
BITMAP
000000
000000
000000
000000
000000
000000
000000
000000
03F600
0E1E00
0C0E00
1C0600
180600
180000
180000
180000
1C0600
0C0600
0E1C00
03F800
004000
007000
007800
001800
01F000
ENDCHAR

STARTCHAR egrave
ENCODING 232
SWIDTH 723 0
DWIDTH 18 0
BBX 18 25 0 -5
BITMAP
000000
000000
078000
01E000
006000
000000
000000
000000
03F000
0E1C00
0C0C00
1C0E00
180600
1FFE00
180000
180000
1C0E00
0C0C00
0E1C00
03F000
000000
000000
000000
000000
000000
ENDCHAR

STARTCHAR eacute
ENCODING 233
SWIDTH 723 0
DWIDTH 18 0
BBX 18 25 0 -5
BITMAP
000000
000000
007800
01E000
018000
000000
000000
000000
03F000
0E1C00
0C0C00
1C0E00
180600
1FFE00
180000
180000
1C0E00
0C0C00
0E1C00
03F000
000000
000000
000000
000000
000000
ENDCHAR

STARTCHAR ecircumflex
ENCODING 234
SWIDTH 723 0
DWIDTH 18 0
BBX 18 25 0 -5
BITMAP
000000
000000
000000
01E000
033000
061800
000000
000000
03F000
0E1C00
0C0C00
1C0E00
180600
1FFE00
180000
180000
1C0E00
0C0C00
0E1C00
03F000
000000
000000
000000
000000
000000
ENDCHAR

STARTCHAR edieresis
ENCODING 235
SWIDTH 723 0
DWIDTH 18 0
BBX 18 25 0 -5
BITMAP
000000
000000
0E1C00
0E1C00
000000
000000
000000
000000
03F000
0E1C00
0C0C00
1C0E00
180600
1FFE00
180000
180000
1C0E00
0C0C00
0E1C00
03F000
000000
000000
000000
000000
000000
ENDCHAR

STARTCHAR igrave
ENCODING 236
SWIDTH 723 0
DWIDTH 18 0
BBX 18 25 0 -5
BITMAP
000000
000000
078000
01E000
006000
000000
000000
000000
1FC000
00C000
00C000
00C000
00C000
00C000
00C000
00C000
00C000
00C000
00C000
1FFE00
000000
000000
000000
000000
000000
ENDCHAR

STARTCHAR iacute
ENCODING 237
SWIDTH 723 0
DWIDTH 18 0
BBX 18 25 0 -5
BITMAP
000000
000000
00F000
03C000
030000
000000
000000
000000
1FC000
00C000
00C000
00C000
00C000
00C000
00C000
00C000
00C000
00C000
00C000
1FFE00
000000
000000
000000
000000
000000
ENDCHAR

STARTCHAR icircumflex
ENCODING 238
SWIDTH 723 0
DWIDTH 18 0
BBX 18 25 0 -5
BITMAP
000000
000000
000000
01E000
033000
061800
000000
000000
1FC000
00C000
00C000
00C000
00C000
00C000
00C000
00C000
00C000
00C000
00C000
1FFE00
000000
000000
000000
000000
000000
ENDCHAR

STARTCHAR idieresis
ENCODING 239
SWIDTH 723 0
DWIDTH 18 0
BBX 18 25 0 -5
BITMAP
000000
000000
0E1C00
0E1C00
000000
000000
000000
000000
1FC000
00C000
00C000
00C000
00C000
00C000
00C000
00C000
00C000
00C000
00C000
1FFE00
000000
000000
000000
000000
000000
ENDCHAR

STARTCHAR gbreve
ENCODING 240
SWIDTH 723 0
DWIDTH 18 0
BBX 18 25 0 -5
BITMAP
000000
000000
181800
181800
0C3000
03C000
000000
000000
07CE00
1C7C00
181C00
300C00
300C00
300C00
300C00
300C00
300C00
181C00
1C7C00
07EC00
000C00
000C00
001800
007000
3FC000
ENDCHAR

STARTCHAR ntilde
ENCODING 241
SWIDTH 723 0
DWIDTH 18 0
BBX 18 25 0 -5
BITMAP
000000
000000
000000
071000
0FF000
08E000
000000
000000
39F800
1F1C00
1C0C00
180C00
180C00
180C00
180C00
180C00
180C00
180C00
180C00
3E3E00
000000
000000
000000
000000
000000
ENDCHAR

STARTCHAR ograve
ENCODING 242
SWIDTH 723 0
DWIDTH 18 0
BBX 18 25 0 -5
BITMAP
000000
000000
0F0000
03C000
00C000
000000
000000
000000
07F000
1E3C00
180C00
380E00
300600
300600
300600
300600
380E00
180C00
1E3C00
07F000
000000
000000
000000
000000
000000
ENDCHAR

STARTCHAR oacute
ENCODING 243
SWIDTH 723 0
DWIDTH 18 0
BBX 18 25 0 -5
BITMAP
000000
000000
007800
01E000
018000
000000
000000
000000
07F000
1E3C00
180C00
380E00
300600
300600
300600
300600
380E00
180C00
1E3C00
07F000
000000
000000
000000
000000
000000
ENDCHAR

STARTCHAR ocircumflex
ENCODING 244
SWIDTH 723 0
DWIDTH 18 0
BBX 18 25 0 -5
BITMAP
000000
000000
000000
01E000
033000
061800
000000
000000
07F000
1E3C00
180C00
380E00
300600
300600
300600
300600
380E00
180C00
1E3C00
07F000
000000
000000
000000
000000
000000
ENDCHAR

STARTCHAR otilde
ENCODING 245
SWIDTH 723 0
DWIDTH 18 0
BBX 18 25 0 -5
BITMAP
000000
000000
000000
038800
07F800
047000
000000
000000
07F000
1E3C00
180C00
380E00
300600
300600
300600
300600
380E00
180C00
1E3C00
07F000
000000
000000
000000
000000
000000
ENDCHAR

STARTCHAR odieresis
ENCODING 246
SWIDTH 723 0
DWIDTH 18 0
BBX 18 25 0 -5
BITMAP
000000
000000
0E1C00
0E1C00
000000
000000
000000
000000
07F000
1E3C00
180C00
380E00
300600
300600
300600
300600
380E00
180C00
1E3C00
07F000
000000
000000
000000
000000
000000
ENDCHAR

STARTCHAR divide
ENCODING 247
SWIDTH 723 0
DWIDTH 18 0
BBX 18 25 0 -5
BITMAP
000000
000000
000000
000000
000000
000000
000000
00C000
00C000
00C000
000000
000000
1FFE00
000000
000000
00C000
00C000
00C000
000000
000000
000000
000000
000000
000000
000000
ENDCHAR

STARTCHAR oslash
ENCODING 248
SWIDTH 723 0
DWIDTH 18 0
BBX 18 25 0 -5
BITMAP
000000
000000
000000
000000
000000
000000
000000
000200
07F600
1E3C00
181C00
383600
306600
304600
31C600
330600
360E00
1C0C00
1E3C00
37F000
200000
000000
000000
000000
000000
ENDCHAR

STARTCHAR ugrave
ENCODING 249
SWIDTH 723 0
DWIDTH 18 0
BBX 18 25 0 -5
BITMAP
000000
000000
078000
01E000
006000
000000
000000
000000
381C00
180C00
180C00
180C00
180C00
180C00
180C00
180C00
180C00
181C00
1C3C00
0FEE00
000000
000000
000000
000000
000000
ENDCHAR

STARTCHAR uacute
ENCODING 250
SWIDTH 723 0
DWIDTH 18 0
BBX 18 25 0 -5
BITMAP
000000
000000
00F000
03C000
030000
000000
000000
000000
381C00
180C00
180C00
180C00
180C00
180C00
180C00
180C00
180C00
181C00
1C3C00
0FEE00
000000
000000
000000
000000
000000
ENDCHAR

STARTCHAR ucircumflex
ENCODING 251
SWIDTH 723 0
DWIDTH 18 0
BBX 18 25 0 -5
BITMAP
000000
000000
000000
03C000
066000
0C3000
000000
000000
381C00
180C00
180C00
180C00
180C00
180C00
180C00
180C00
180C00
181C00
1C3C00
0FEE00
000000
000000
000000
000000
000000
ENDCHAR

STARTCHAR udieresis
ENCODING 252
SWIDTH 723 0
DWIDTH 18 0
BBX 18 25 0 -5
BITMAP
000000
000000
1C3800
1C3800
000000
000000
000000
000000
381C00
180C00
180C00
180C00
180C00
180C00
180C00
180C00
180C00
181C00
1C3C00
0FEE00
000000
000000
000000
000000
000000
ENDCHAR

STARTCHAR dotlessi
ENCODING 253
SWIDTH 723 0
DWIDTH 18 0
BBX 18 25 0 -5
BITMAP
000000
000000
000000
000000
000000
000000
000000
000000
1FC000
00C000
00C000
00C000
00C000
00C000
00C000
00C000
00C000
00C000
00C000
1FFE00
000000
000000
000000
000000
000000
ENDCHAR

STARTCHAR scedilla
ENCODING 254
SWIDTH 723 0
DWIDTH 18 0
BBX 18 25 0 -5
BITMAP
000000
000000
000000
000000
000000
000000
000000
000000
07F200
0C1A00
180E00
1C0600
0F0000
03E000
003800
180E00
180600
1C0600
160C00
13F800
004000
007000
007800
001800
01F000
ENDCHAR

STARTCHAR ydieresis
ENCODING 255
SWIDTH 723 0
DWIDTH 18 0
BBX 18 25 0 -5
BITMAP
000000
000000
0E1C00
0E1C00
000000
000000
000000
000000
3E0F00
1C0600
0C0E00
0C0C00
0E1C00
061800
063000
033000
036000
01C000
01C000
018000
030000
030000
060000
060000
1F0000
ENDCHAR
ENDFONT
